<svg width="165" height="138" viewBox="0 0 165 138" version="1.1" xmlns="http://www.w3.org/2000/svg" xmlns:xlink="http://www.w3.org/1999/xlink" xmlns:figma="http://www.figma.com/figma/ns">
<title>Group</title>
<desc>Created using Figma</desc>
<g id="Canvas" transform="translate(639 282)" figma:type="canvas">
<g id="Group" style="mix-blend-mode:normal;" figma:type="frame">
<g id="Line" style="mix-blend-mode:normal;" figma:type="vector">
<use xlink:href="#path0_stroke" transform="matrix(6.12323e-17 -1 1 6.12323e-17 -617 -167)" fill="#2D9CDB" style="mix-blend-mode:normal;"/>
</g>
<g id="Line" style="mix-blend-mode:normal;" figma:type="vector">
<use xlink:href="#path1_stroke" transform="translate(-607 -153)" fill="#EB5757" style="mix-blend-mode:normal;"/>
</g>
<g id="Group" style="mix-blend-mode:normal;" figma:type="frame">
<g id="cubic" style="mix-blend-mode:normal;" figma:type="frame">
<g id="Group" style="mix-blend-mode:normal;" figma:type="frame">
<g id="Vector" style="mix-blend-mode:normal;" figma:type="vector">
<use xlink:href="#path2_stroke" transform="translate(-606 -266)" style="mix-blend-mode:normal;"/>
</g>
<g id="Vector" style="mix-blend-mode:normal;" figma:type="vector">
<use xlink:href="#path3_stroke" transform="translate(-606 -266)" style="mix-blend-mode:normal;"/>
</g>
<g id="Vector" style="mix-blend-mode:normal;" figma:type="vector">
<use xlink:href="#path4_fill" transform="translate(-609 -169)" fill="#FFFFFF" style="mix-blend-mode:normal;"/>
<use xlink:href="#path5_stroke" transform="translate(-609 -169)" style="mix-blend-mode:normal;"/>
</g>
<g id="Vector" style="mix-blend-mode:normal;" figma:type="vector">
<use xlink:href="#path4_fill" transform="translate(-567 -169)" fill="#FFFFFF" style="mix-blend-mode:normal;"/>
<use xlink:href="#path5_stroke" transform="translate(-567 -169)" style="mix-blend-mode:normal;"/>
</g>
<g id="Vector" style="mix-blend-mode:normal;" figma:type="vector">
<use xlink:href="#path4_fill" transform="translate(-551 -269)" fill="#FFFFFF" style="mix-blend-mode:normal;"/>
<use xlink:href="#path5_stroke" transform="translate(-551 -269)" style="mix-blend-mode:normal;"/>
</g>
<g id="Vector" style="mix-blend-mode:normal;" figma:type="vector">
<use xlink:href="#path4_fill" transform="translate(-509 -269)" fill="#FFFFFF" style="mix-blend-mode:normal;"/>
<use xlink:href="#path5_stroke" transform="translate(-509 -269)" style="mix-blend-mode:normal;"/>
</g>
</g>
</g>
<g id="(x1, y1)" style="mix-blend-mode:normal;" figma:type="text">
<use xlink:href="#path6_fill" transform="translate(-558.5 -183)" style="mix-blend-mode:normal;"/>
</g>
<g id="(x2, y2)" style="mix-blend-mode:normal;" figma:type="text">
<use xlink:href="#path7_fill" transform="translate(-589 -262)" style="mix-blend-mode:normal;"/>
</g>
<g id="(1, 1)" style="mix-blend-mode:normal;" figma:type="text">
<use xlink:href="#path8_fill" transform="translate(-506 -283)" style="mix-blend-mode:normal;"/>
</g>
<g id="(0, 0)" style="mix-blend-mode:normal;" figma:type="text">
<use xlink:href="#path9_fill" transform="translate(-639 -163)" style="mix-blend-mode:normal;"/>
</g>
</g>
<g id="Portion of Time" style="mix-blend-mode:normal;" figma:type="text">
<use xlink:href="#path10_fill" transform="translate(-587.5 -153)" fill="#EB5757" style="mix-blend-mode:normal;"/>
</g>
<g id="Portion of CSS Property Value" style="mix-blend-mode:normal;" figma:type="text">
<use xlink:href="#path11_fill" transform="matrix(6.12323e-17 -1 1 6.12323e-17 -628 -172.5)" fill="#2D9CDB" style="mix-blend-mode:normal;"/>
</g>
</g>
</g>
<defs>
<path id="path0_stroke" d="M 103.354 0.353553C 103.549 0.158291 103.549 -0.158291 103.354 -0.353553L 100.172 -3.53553C 99.9763 -3.7308 99.6597 -3.7308 99.4645 -3.53553C 99.2692 -3.34027 99.2692 -3.02369 99.4645 -2.82843L 102.293 0L 99.4645 2.82843C 99.2692 3.02369 99.2692 3.34027 99.4645 3.53553C 99.6597 3.7308 99.9763 3.7308 100.172 3.53553L 103.354 0.353553ZM 0 0.5L 103 0.5L 103 -0.5L 0 -0.5L 0 0.5Z"/>
<path id="path1_stroke" d="M 105.354 0.353553C 105.549 0.158291 105.549 -0.158291 105.354 -0.353553L 102.172 -3.53553C 101.976 -3.7308 101.66 -3.7308 101.464 -3.53553C 101.269 -3.34027 101.269 -3.02369 101.464 -2.82843L 104.293 0L 101.464 2.82843C 101.269 3.02369 101.269 3.34027 101.464 3.53553C 101.66 3.7308 101.976 3.7308 102.172 3.53553L 105.354 0.353553ZM 0 0.5L 105 0.5L 105 -0.5L 0 -0.5L 0 0.5Z"/>
<path id="path2_stroke" d="M 0 101C 10.9352 101 20.0631 94.4835 28.1957 85.027C 36.3151 75.5793 43.615 63.0017 50.865 50.5017C 58.115 38.0017 65.3151 25.5793 73.3207 16.277C 81.3131 6.98354 89.9352 1 100 1L 100 -1C 89.0648 -1 79.9369 5.51646 71.8043 14.973C 63.6849 24.4207 56.385 36.9983 49.135 49.4983C 41.885 61.9983 34.6849 74.4207 26.6793 83.723C 18.6869 93.0165 10.0648 99 0 99L 0 101Z"/>
<path id="path3_stroke" d="M 0 100.5L 0.5 100.5L 0.5 99.5L 0 99.5L 0 100.5ZM 2.5 100.5L 3.5 100.5L 3.5 99.5L 2.5 99.5L 2.5 100.5ZM 5.5 100.5L 6.5 100.5L 6.5 99.5L 5.5 99.5L 5.5 100.5ZM 8.5 100.5L 9.5 100.5L 9.5 99.5L 8.5 99.5L 8.5 100.5ZM 11.5 100.5L 12.5 100.5L 12.5 99.5L 11.5 99.5L 11.5 100.5ZM 14.5 100.5L 15.5 100.5L 15.5 99.5L 14.5 99.5L 14.5 100.5ZM 17.5 100.5L 18.5 100.5L 18.5 99.5L 17.5 99.5L 17.5 100.5ZM 20.5 100.5L 21.5 100.5L 21.5 99.5L 20.5 99.5L 20.5 100.5ZM 23.5 100.5L 24.5 100.5L 24.5 99.5L 23.5 99.5L 23.5 100.5ZM 26.5 100.5L 27.5 100.5L 27.5 99.5L 26.5 99.5L 26.5 100.5ZM 29.5 100.5L 30.5 100.5L 30.5 99.5L 29.5 99.5L 29.5 100.5ZM 32.5 100.5L 33.5 100.5L 33.5 99.5L 32.5 99.5L 32.5 100.5ZM 35.5 100.5L 36.5 100.5L 36.5 99.5L 35.5 99.5L 35.5 100.5ZM 38.5 100.5L 39.5 100.5L 39.5 99.5L 38.5 99.5L 38.5 100.5ZM 41.5 100.5L 42 100.5L 42 99.5L 41.5 99.5L 41.5 100.5ZM 58 0.5L 58.5 0.5L 58.5 -0.5L 58 -0.5L 58 0.5ZM 60.5 0.5L 61.5 0.5L 61.5 -0.5L 60.5 -0.5L 60.5 0.5ZM 63.5 0.5L 64.5 0.5L 64.5 -0.5L 63.5 -0.5L 63.5 0.5ZM 66.5 0.5L 67.5 0.5L 67.5 -0.5L 66.5 -0.5L 66.5 0.5ZM 69.5 0.5L 70.5 0.5L 70.5 -0.5L 69.5 -0.5L 69.5 0.5ZM 72.5 0.5L 73.5 0.5L 73.5 -0.5L 72.5 -0.5L 72.5 0.5ZM 75.5 0.5L 76.5 0.5L 76.5 -0.5L 75.5 -0.5L 75.5 0.5ZM 78.5 0.5L 79.5 0.5L 79.5 -0.5L 78.5 -0.5L 78.5 0.5ZM 81.5 0.5L 82.5 0.5L 82.5 -0.5L 81.5 -0.5L 81.5 0.5ZM 84.5 0.5L 85.5 0.5L 85.5 -0.5L 84.5 -0.5L 84.5 0.5ZM 87.5 0.5L 88.5 0.5L 88.5 -0.5L 87.5 -0.5L 87.5 0.5ZM 90.5 0.5L 91.5 0.5L 91.5 -0.5L 90.5 -0.5L 90.5 0.5ZM 93.5 0.5L 94.5 0.5L 94.5 -0.5L 93.5 -0.5L 93.5 0.5ZM 96.5 0.5L 97.5 0.5L 97.5 -0.5L 96.5 -0.5L 96.5 0.5ZM 99.5 0.5L 100 0.5L 100 -0.5L 99.5 -0.5L 99.5 0.5Z"/>
<path id="path4_fill" d="M 3 6C 4.65685 6 6 4.65685 6 3C 6 1.34315 4.65685 0 3 0C 1.34315 0 0 1.34315 0 3C 0 4.65685 1.34315 6 3 6Z"/>
<path id="path5_stroke" d="M 5 3C 5 4.10457 4.10457 5 3 5L 3 7C 5.20914 7 7 5.20914 7 3L 5 3ZM 3 5C 1.89543 5 1 4.10457 1 3L -1 3C -1 5.20914 0.790861 7 3 7L 3 5ZM 1 3C 1 1.89543 1.89543 1 3 1L 3 -1C 0.790861 -1 -1 0.790861 -1 3L 1 3ZM 3 1C 4.10457 1 5 1.89543 5 3L 7 3C 7 0.790861 5.20914 -1 3 -1L 3 1Z"/>
<path id="path6_fill" d="M 4.71094 10.6348C 3.89941 10.585 3.21533 10.355 2.65869 9.94482C 2.10205 9.5376 1.65674 8.98682 1.32275 8.29248C 0.991699 7.59814 0.826172 6.90234 0.826172 6.20508C 0.826172 5.50781 0.991699 4.81201 1.32275 4.11768C 1.65674 3.42334 2.10205 2.87256 2.65869 2.46533C 3.21533 2.05518 3.89941 1.82373 4.71094 1.771L 4.71094 2.45654C 4.09863 2.51221 3.57129 2.71875 3.12891 3.07617C 2.68945 3.43066 2.34375 3.8833 2.0918 4.43408C 1.83984 4.98486 1.71387 5.5752 1.71387 6.20508C 1.71387 6.83496 1.83984 7.42529 2.0918 7.97607C 2.34375 8.52686 2.68945 8.97949 3.12891 9.33398C 3.57129 9.68848 4.09863 9.89502 4.71094 9.95361L 4.71094 10.6348ZM 6.59619 9L 5.65137 9L 7.58057 6.4292L 5.77881 4.09131L 6.82471 4.09131L 8.10352 5.73926L 9.34717 4.09131L 10.2744 4.09131L 8.56934 6.3501L 10.5952 9L 9.54492 9L 8.05078 7.04443L 6.59619 9ZM 13.3066 8.31885L 13.3066 3.0542C 13.0605 3.25049 12.8218 3.41748 12.5903 3.55518C 12.3589 3.69287 12.041 3.8335 11.6367 3.97705L 11.6367 3.23877C 12.2783 2.96631 12.835 2.61328 13.3066 2.17969L 14.124 2.17969L 14.124 8.31885L 15.7632 8.31885L 15.7632 9L 11.6367 9L 11.6367 8.31885L 13.3066 8.31885ZM 18.0791 10.9072L 18.0791 10.3623C 18.29 10.3066 18.4497 10.2261 18.5581 10.1206C 18.6694 10.0181 18.7573 9.88623 18.8218 9.7251C 18.8892 9.56689 18.9229 9.375 18.9229 9.14941C 18.6504 9.14941 18.4497 9.07324 18.3208 8.9209C 18.1919 8.76563 18.1274 8.6001 18.1274 8.42432C 18.1274 8.22217 18.1992 8.05225 18.3428 7.91455C 18.4863 7.77393 18.6533 7.70361 18.8438 7.70361C 19.0898 7.70361 19.3022 7.81055 19.481 8.02441C 19.6597 8.23535 19.749 8.52539 19.749 8.89453C 19.749 9.2168 19.6787 9.52002 19.5381 9.8042C 19.3975 10.0913 19.2056 10.3359 18.9624 10.5381C 18.7222 10.7402 18.4277 10.8633 18.0791 10.9072ZM 29.5137 8.80225L 27.2461 4.09131L 28.147 4.09131L 29.9531 7.77393L 31.4648 4.09131L 32.2866 4.09131L 30.3838 8.65283C 29.9824 9.6167 29.6001 10.2568 29.2368 10.5732C 28.8765 10.8896 28.4092 11.0479 27.835 11.0479C 27.5859 11.0479 27.3633 11.0259 27.167 10.9819L 27.167 10.2612C 27.3926 10.3315 27.6079 10.3667 27.813 10.3667C 28.0767 10.3667 28.311 10.3154 28.5161 10.2129C 28.7212 10.1104 28.9087 9.92871 29.0786 9.66797C 29.2485 9.40723 29.3687 9.18164 29.439 8.99121L 29.5137 8.80225ZM 34.9277 8.31885L 34.9277 3.0542C 34.6816 3.25049 34.4429 3.41748 34.2114 3.55518C 33.98 3.69287 33.6621 3.8335 33.2578 3.97705L 33.2578 3.23877C 33.8994 2.96631 34.4561 2.61328 34.9277 2.17969L 35.7451 2.17969L 35.7451 8.31885L 37.3843 8.31885L 37.3843 9L 33.2578 9L 33.2578 8.31885L 34.9277 8.31885ZM 38.5269 1.771C 39.3384 1.82373 40.0225 2.05518 40.5791 2.46533C 41.1357 2.87256 41.5796 3.42334 41.9106 4.11768C 42.2446 4.81201 42.4116 5.50781 42.4116 6.20508C 42.4116 6.90234 42.2446 7.59814 41.9106 8.29248C 41.5796 8.98682 41.1357 9.5376 40.5791 9.94482C 40.0225 10.355 39.3384 10.585 38.5269 10.6348L 38.5269 9.95361C 39.1392 9.89502 39.665 9.68848 40.1045 9.33398C 40.5469 8.97949 40.894 8.52686 41.146 7.97607C 41.4009 7.42529 41.5283 6.83496 41.5283 6.20508C 41.5283 5.5752 41.4009 4.98486 41.146 4.43408C 40.894 3.8833 40.5469 3.43066 40.1045 3.07617C 39.665 2.71875 39.1392 2.51221 38.5269 2.45654L 38.5269 1.771Z"/>
<path id="path7_fill" d="M 4.71094 10.6348C 3.89941 10.585 3.21533 10.355 2.65869 9.94482C 2.10205 9.5376 1.65674 8.98682 1.32275 8.29248C 0.991699 7.59814 0.826172 6.90234 0.826172 6.20508C 0.826172 5.50781 0.991699 4.81201 1.32275 4.11768C 1.65674 3.42334 2.10205 2.87256 2.65869 2.46533C 3.21533 2.05518 3.89941 1.82373 4.71094 1.771L 4.71094 2.45654C 4.09863 2.51221 3.57129 2.71875 3.12891 3.07617C 2.68945 3.43066 2.34375 3.8833 2.0918 4.43408C 1.83984 4.98486 1.71387 5.5752 1.71387 6.20508C 1.71387 6.83496 1.83984 7.42529 2.0918 7.97607C 2.34375 8.52686 2.68945 8.97949 3.12891 9.33398C 3.57129 9.68848 4.09863 9.89502 4.71094 9.95361L 4.71094 10.6348ZM 6.59619 9L 5.65137 9L 7.58057 6.4292L 5.77881 4.09131L 6.82471 4.09131L 8.10352 5.73926L 9.34717 4.09131L 10.2744 4.09131L 8.56934 6.3501L 10.5952 9L 9.54492 9L 8.05078 7.04443L 6.59619 9ZM 15.5918 9L 11.4653 9L 11.4653 8.24854C 11.4653 8.05518 11.5049 7.84863 11.584 7.62891C 11.6631 7.40625 11.814 7.15723 12.0366 6.88184C 12.2593 6.60645 12.4951 6.34131 12.7441 6.08643L 13.21 5.61182C 13.3037 5.51514 13.5088 5.29102 13.8252 4.93945C 14.1416 4.58789 14.3496 4.31836 14.4492 4.13086C 14.5518 3.94336 14.603 3.75879 14.603 3.57715C 14.603 3.28418 14.4858 3.05859 14.2515 2.90039C 14.0171 2.73926 13.7534 2.65869 13.4604 2.65869C 13.2935 2.65869 13.106 2.67773 12.8979 2.71582C 12.6929 2.75391 12.5127 2.79932 12.3574 2.85205C 12.2021 2.90186 11.9502 3.00586 11.6016 3.16406L 11.6016 2.43896C 11.9707 2.26318 12.3398 2.14307 12.709 2.07861C 13.0811 2.01123 13.3872 1.97754 13.6274 1.97754C 13.9819 1.97754 14.3071 2.03613 14.603 2.15332C 14.9019 2.26758 15.123 2.44629 15.2666 2.68945C 15.4131 2.93262 15.4863 3.19189 15.4863 3.46729C 15.4863 3.7749 15.3926 4.08984 15.2051 4.41211C 15.0205 4.73437 14.6704 5.14893 14.1548 5.65576L 13.6538 6.15234L 13.2319 6.56543C 12.9653 6.83496 12.75 7.0957 12.5859 7.34766C 12.4219 7.59961 12.3311 7.8999 12.3135 8.24854L 15.5918 8.24854L 15.5918 9ZM 18.0791 10.9072L 18.0791 10.3623C 18.29 10.3066 18.4497 10.2261 18.5581 10.1206C 18.6694 10.0181 18.7573 9.88623 18.8218 9.7251C 18.8892 9.56689 18.9229 9.375 18.9229 9.14941C 18.6504 9.14941 18.4497 9.07324 18.3208 8.9209C 18.1919 8.76563 18.1274 8.6001 18.1274 8.42432C 18.1274 8.22217 18.1992 8.05225 18.3428 7.91455C 18.4863 7.77393 18.6533 7.70361 18.8438 7.70361C 19.0898 7.70361 19.3022 7.81055 19.481 8.02441C 19.6597 8.23535 19.749 8.52539 19.749 8.89453C 19.749 9.2168 19.6787 9.52002 19.5381 9.8042C 19.3975 10.0913 19.2056 10.3359 18.9624 10.5381C 18.7222 10.7402 18.4277 10.8633 18.0791 10.9072ZM 29.5137 8.80225L 27.2461 4.09131L 28.147 4.09131L 29.9531 7.77393L 31.4648 4.09131L 32.2866 4.09131L 30.3838 8.65283C 29.9824 9.6167 29.6001 10.2568 29.2368 10.5732C 28.8765 10.8896 28.4092 11.0479 27.835 11.0479C 27.5859 11.0479 27.3633 11.0259 27.167 10.9819L 27.167 10.2612C 27.3926 10.3315 27.6079 10.3667 27.813 10.3667C 28.0767 10.3667 28.311 10.3154 28.5161 10.2129C 28.7212 10.1104 28.9087 9.92871 29.0786 9.66797C 29.2485 9.40723 29.3687 9.18164 29.439 8.99121L 29.5137 8.80225ZM 37.2129 9L 33.0864 9L 33.0864 8.24854C 33.0864 8.05518 33.126 7.84863 33.2051 7.62891C 33.2842 7.40625 33.4351 7.15723 33.6577 6.88184C 33.8804 6.60645 34.1162 6.34131 34.3652 6.08643L 34.8311 5.61182C 34.9248 5.51514 35.1299 5.29102 35.4463 4.93945C 35.7627 4.58789 35.9707 4.31836 36.0703 4.13086C 36.1729 3.94336 36.2241 3.75879 36.2241 3.57715C 36.2241 3.28418 36.1069 3.05859 35.8726 2.90039C 35.6382 2.73926 35.3745 2.65869 35.0815 2.65869C 34.9146 2.65869 34.7271 2.67773 34.519 2.71582C 34.314 2.75391 34.1338 2.79932 33.9785 2.85205C 33.8232 2.90186 33.5713 3.00586 33.2227 3.16406L 33.2227 2.43896C 33.5918 2.26318 33.9609 2.14307 34.3301 2.07861C 34.7021 2.01123 35.0083 1.97754 35.2485 1.97754C 35.603 1.97754 35.9282 2.03613 36.2241 2.15332C 36.5229 2.26758 36.7441 2.44629 36.8877 2.68945C 37.0342 2.93262 37.1074 3.19189 37.1074 3.46729C 37.1074 3.7749 37.0137 4.08984 36.8262 4.41211C 36.6416 4.73437 36.2915 5.14893 35.7759 5.65576L 35.2749 6.15234L 34.853 6.56543C 34.5864 6.83496 34.3711 7.0957 34.207 7.34766C 34.043 7.59961 33.9521 7.8999 33.9346 8.24854L 37.2129 8.24854L 37.2129 9ZM 38.5269 1.771C 39.3384 1.82373 40.0225 2.05518 40.5791 2.46533C 41.1357 2.87256 41.5796 3.42334 41.9106 4.11768C 42.2446 4.81201 42.4116 5.50781 42.4116 6.20508C 42.4116 6.90234 42.2446 7.59814 41.9106 8.29248C 41.5796 8.98682 41.1357 9.5376 40.5791 9.94482C 40.0225 10.355 39.3384 10.585 38.5269 10.6348L 38.5269 9.95361C 39.1392 9.89502 39.665 9.68848 40.1045 9.33398C 40.5469 8.97949 40.894 8.52686 41.146 7.97607C 41.4009 7.42529 41.5283 6.83496 41.5283 6.20508C 41.5283 5.5752 41.4009 4.98486 41.146 4.43408C 40.894 3.8833 40.5469 3.43066 40.1045 3.07617C 39.665 2.71875 39.1392 2.51221 38.5269 2.45654L 38.5269 1.771Z"/>
<path id="path8_fill" d="M 4.71094 10.6348C 3.89941 10.585 3.21533 10.355 2.65869 9.94482C 2.10205 9.5376 1.65674 8.98682 1.32275 8.29248C 0.991699 7.59814 0.826172 6.90234 0.826172 6.20508C 0.826172 5.50781 0.991699 4.81201 1.32275 4.11768C 1.65674 3.42334 2.10205 2.87256 2.65869 2.46533C 3.21533 2.05518 3.89941 1.82373 4.71094 1.771L 4.71094 2.45654C 4.09863 2.51221 3.57129 2.71875 3.12891 3.07617C 2.68945 3.43066 2.34375 3.8833 2.0918 4.43408C 1.83984 4.98486 1.71387 5.5752 1.71387 6.20508C 1.71387 6.83496 1.83984 7.42529 2.0918 7.97607C 2.34375 8.52686 2.68945 8.97949 3.12891 9.33398C 3.57129 9.68848 4.09863 9.89502 4.71094 9.95361L 4.71094 10.6348ZM 7.90137 8.31885L 7.90137 3.0542C 7.65527 3.25049 7.4165 3.41748 7.18506 3.55518C 6.95361 3.69287 6.63574 3.8335 6.23145 3.97705L 6.23145 3.23877C 6.87305 2.96631 7.42969 2.61328 7.90137 2.17969L 8.71875 2.17969L 8.71875 8.31885L 10.3579 8.31885L 10.3579 9L 6.23145 9L 6.23145 8.31885L 7.90137 8.31885ZM 12.6738 10.9072L 12.6738 10.3623C 12.8848 10.3066 13.0444 10.2261 13.1528 10.1206C 13.2642 10.0181 13.3521 9.88623 13.4165 9.7251C 13.4839 9.56689 13.5176 9.375 13.5176 9.14941C 13.2451 9.14941 13.0444 9.07324 12.9155 8.9209C 12.7866 8.76563 12.7222 8.6001 12.7222 8.42432C 12.7222 8.22217 12.7939 8.05225 12.9375 7.91455C 13.0811 7.77393 13.248 7.70361 13.4385 7.70361C 13.6846 7.70361 13.897 7.81055 14.0757 8.02441C 14.2544 8.23535 14.3438 8.52539 14.3438 8.89453C 14.3438 9.2168 14.2734 9.52002 14.1328 9.8042C 13.9922 10.0913 13.8003 10.3359 13.5571 10.5381C 13.3169 10.7402 13.0225 10.8633 12.6738 10.9072ZM 24.1172 8.31885L 24.1172 3.0542C 23.8711 3.25049 23.6323 3.41748 23.4009 3.55518C 23.1694 3.69287 22.8516 3.8335 22.4473 3.97705L 22.4473 3.23877C 23.0889 2.96631 23.6455 2.61328 24.1172 2.17969L 24.9346 2.17969L 24.9346 8.31885L 26.5737 8.31885L 26.5737 9L 22.4473 9L 22.4473 8.31885L 24.1172 8.31885ZM 27.7163 1.771C 28.5278 1.82373 29.2119 2.05518 29.7686 2.46533C 30.3252 2.87256 30.769 3.42334 31.1001 4.11768C 31.4341 4.81201 31.6011 5.50781 31.6011 6.20508C 31.6011 6.90234 31.4341 7.59814 31.1001 8.29248C 30.769 8.98682 30.3252 9.5376 29.7686 9.94482C 29.2119 10.355 28.5278 10.585 27.7163 10.6348L 27.7163 9.95361C 28.3286 9.89502 28.8545 9.68848 29.2939 9.33398C 29.7363 8.97949 30.0835 8.52686 30.3354 7.97607C 30.5903 7.42529 30.7178 6.83496 30.7178 6.20508C 30.7178 5.5752 30.5903 4.98486 30.3354 4.43408C 30.0835 3.8833 29.7363 3.43066 29.2939 3.07617C 28.8545 2.71875 28.3286 2.51221 27.7163 2.45654L 27.7163 1.771Z"/>
<path id="path9_fill" d="M 4.71094 10.6348C 3.89941 10.585 3.21533 10.355 2.65869 9.94482C 2.10205 9.5376 1.65674 8.98682 1.32275 8.29248C 0.991699 7.59814 0.826172 6.90234 0.826172 6.20508C 0.826172 5.50781 0.991699 4.81201 1.32275 4.11768C 1.65674 3.42334 2.10205 2.87256 2.65869 2.46533C 3.21533 2.05518 3.89941 1.82373 4.71094 1.771L 4.71094 2.45654C 4.09863 2.51221 3.57129 2.71875 3.12891 3.07617C 2.68945 3.43066 2.34375 3.8833 2.0918 4.43408C 1.83984 4.98486 1.71387 5.5752 1.71387 6.20508C 1.71387 6.83496 1.83984 7.42529 2.0918 7.97607C 2.34375 8.52686 2.68945 8.97949 3.12891 9.33398C 3.57129 9.68848 4.09863 9.89502 4.71094 9.95361L 4.71094 10.6348ZM 8.10352 1.97754C 8.87988 1.97754 9.47168 2.3042 9.87891 2.95752C 10.2861 3.60791 10.4897 4.48535 10.4897 5.58984C 10.4897 6.69727 10.2861 7.57764 9.87891 8.23096C 9.47168 8.88135 8.87988 9.20654 8.10352 9.20654C 7.33008 9.20654 6.73828 8.88135 6.32812 8.23096C 5.9209 7.57764 5.71729 6.69727 5.71729 5.58984C 5.71729 4.48535 5.9209 3.60791 6.32812 2.95752C 6.73828 2.3042 7.33008 1.97754 8.10352 1.97754ZM 6.77197 7.04883L 9.13184 3.35303C 8.98242 3.08057 8.81982 2.89746 8.64404 2.80371C 8.47119 2.70703 8.29102 2.65869 8.10352 2.65869C 7.61426 2.65869 7.24219 2.93115 6.9873 3.47607C 6.73242 4.01807 6.60498 4.70654 6.60498 5.5415C 6.60498 5.73193 6.61084 5.93701 6.62256 6.15674C 6.63428 6.37646 6.68408 6.67383 6.77197 7.04883ZM 9.42627 4.16602L 7.08398 7.88379C 7.20996 8.09766 7.35498 8.25879 7.51904 8.36719C 7.68311 8.47266 7.86621 8.52539 8.06836 8.52539C 8.625 8.52539 9.02051 8.21484 9.25488 7.59375C 9.48926 6.96973 9.60645 6.27832 9.60645 5.51953C 9.60645 5.05078 9.54639 4.59961 9.42627 4.16602ZM 12.6738 10.9072L 12.6738 10.3623C 12.8848 10.3066 13.0444 10.2261 13.1528 10.1206C 13.2642 10.0181 13.3521 9.88623 13.4165 9.7251C 13.4839 9.56689 13.5176 9.375 13.5176 9.14941C 13.2451 9.14941 13.0444 9.07324 12.9155 8.9209C 12.7866 8.76563 12.7222 8.6001 12.7222 8.42432C 12.7222 8.22217 12.7939 8.05225 12.9375 7.91455C 13.0811 7.77393 13.248 7.70361 13.4385 7.70361C 13.6846 7.70361 13.897 7.81055 14.0757 8.02441C 14.2544 8.23535 14.3438 8.52539 14.3438 8.89453C 14.3438 9.2168 14.2734 9.52002 14.1328 9.8042C 13.9922 10.0913 13.8003 10.3359 13.5571 10.5381C 13.3169 10.7402 13.0225 10.8633 12.6738 10.9072ZM 24.3193 1.97754C 25.0957 1.97754 25.6875 2.3042 26.0947 2.95752C 26.502 3.60791 26.7056 4.48535 26.7056 5.58984C 26.7056 6.69727 26.502 7.57764 26.0947 8.23096C 25.6875 8.88135 25.0957 9.20654 24.3193 9.20654C 23.5459 9.20654 22.9541 8.88135 22.5439 8.23096C 22.1367 7.57764 21.9331 6.69727 21.9331 5.58984C 21.9331 4.48535 22.1367 3.60791 22.5439 2.95752C 22.9541 2.3042 23.5459 1.97754 24.3193 1.97754ZM 22.9878 7.04883L 25.3477 3.35303C 25.1982 3.08057 25.0356 2.89746 24.8599 2.80371C 24.687 2.70703 24.5068 2.65869 24.3193 2.65869C 23.8301 2.65869 23.458 2.93115 23.2031 3.47607C 22.9482 4.01807 22.8208 4.70654 22.8208 5.5415C 22.8208 5.73193 22.8267 5.93701 22.8384 6.15674C 22.8501 6.37646 22.8999 6.67383 22.9878 7.04883ZM 25.6421 4.16602L 23.2998 7.88379C 23.4258 8.09766 23.5708 8.25879 23.7349 8.36719C 23.8989 8.47266 24.082 8.52539 24.2842 8.52539C 24.8408 8.52539 25.2363 8.21484 25.4707 7.59375C 25.7051 6.96973 25.8223 6.27832 25.8223 5.51953C 25.8223 5.05078 25.7622 4.59961 25.6421 4.16602ZM 27.7163 1.771C 28.5278 1.82373 29.2119 2.05518 29.7686 2.46533C 30.3252 2.87256 30.769 3.42334 31.1001 4.11768C 31.4341 4.81201 31.6011 5.50781 31.6011 6.20508C 31.6011 6.90234 31.4341 7.59814 31.1001 8.29248C 30.769 8.98682 30.3252 9.5376 29.7686 9.94482C 29.2119 10.355 28.5278 10.585 27.7163 10.6348L 27.7163 9.95361C 28.3286 9.89502 28.8545 9.68848 29.2939 9.33398C 29.7363 8.97949 30.0835 8.52686 30.3354 7.97607C 30.5903 7.42529 30.7178 6.83496 30.7178 6.20508C 30.7178 5.5752 30.5903 4.98486 30.3354 4.43408C 30.0835 3.8833 29.7363 3.43066 29.2939 3.07617C 28.8545 2.71875 28.3286 2.51221 27.7163 2.45654L 27.7163 1.771Z"/>
<path id="path10_fill" d="M 1.47656 5.78906L 1.47656 8L 0.6875 8L 0.6875 1.9375L 2.19531 1.9375C 2.8151 1.9375 3.26693 2.00781 3.55078 2.14844C 3.83464 2.28646 4.05208 2.48958 4.20312 2.75781C 4.35417 3.02604 4.42969 3.32552 4.42969 3.65625C 4.42969 4.04427 4.32812 4.40625 4.125 4.74219C 3.92188 5.07812 3.63802 5.33724 3.27344 5.51953C 2.91146 5.69922 2.41927 5.78906 1.79688 5.78906L 1.47656 5.78906ZM 1.47656 5.18359L 1.81641 5.18359C 2.30339 5.18359 2.66536 5.12109 2.90234 4.99609C 3.13932 4.86849 3.32161 4.6862 3.44922 4.44922C 3.57682 4.21224 3.64062 3.95573 3.64062 3.67969C 3.64062 3.33073 3.52604 3.05469 3.29688 2.85156C 3.07031 2.64844 2.62109 2.54688 1.94922 2.54688L 1.47656 2.54688L 1.47656 5.18359ZM 7.20703 8.12109C 6.58203 8.12109 6.08203 7.90365 5.70703 7.46875C 5.33203 7.03125 5.14453 6.48047 5.14453 5.81641C 5.14453 5.15234 5.33203 4.60286 5.70703 4.16797C 6.08203 3.73307 6.58203 3.51562 7.20703 3.51562C 7.82943 3.51562 8.32812 3.73307 8.70312 4.16797C 9.07812 4.60286 9.26562 5.15234 9.26562 5.81641C 9.26562 6.48047 9.07812 7.03125 8.70312 7.46875C 8.32812 7.90365 7.82943 8.12109 7.20703 8.12109ZM 7.20703 7.51562C 7.59505 7.51562 7.90365 7.36458 8.13281 7.0625C 8.36198 6.76042 8.47656 6.34505 8.47656 5.81641C 8.47656 5.29036 8.36198 4.8763 8.13281 4.57422C 7.90365 4.27214 7.59505 4.12109 7.20703 4.12109C 6.81641 4.12109 6.50651 4.27214 6.27734 4.57422C 6.04818 4.8763 5.93359 5.29036 5.93359 5.81641C 5.93359 6.34505 6.04818 6.76042 6.27734 7.0625C 6.50651 7.36458 6.81641 7.51562 7.20703 7.51562ZM 10.5859 8L 10.5859 3.63672L 11.3125 3.63672L 11.3125 4.58984C 11.5391 4.23047 11.7982 3.96224 12.0898 3.78516C 12.3841 3.60547 12.7109 3.51562 13.0703 3.51562C 13.3333 3.51562 13.5964 3.55599 13.8594 3.63672L 13.8594 5.21094L 13.1602 5.21094L 13.1602 4.21484C 13.0378 4.19401 12.9414 4.18359 12.8711 4.18359C 12.6003 4.18359 12.3346 4.29036 12.0742 4.50391C 11.8138 4.71745 11.5599 5.03776 11.3125 5.46484L 11.3125 8L 10.5859 8ZM 18.668 7.82422C 18.3268 7.96745 18.0794 8.05208 17.9258 8.07812C 17.7721 8.10677 17.6237 8.12109 17.4805 8.12109C 17.1758 8.12109 16.8971 8.0625 16.6445 7.94531C 16.3919 7.82812 16.2005 7.65495 16.0703 7.42578C 15.9427 7.19661 15.8789 6.84245 15.8789 6.36328L 15.8789 4.60547L 14.7891 4.60547L 14.7891 4L 15.8789 4L 15.8789 2.24219L 16.6055 2.24219L 16.6055 4L 18.5469 4L 18.5469 4.60547L 16.6055 4.60547L 16.6055 6.35156C 16.6055 6.70312 16.6471 6.95182 16.7305 7.09766C 16.8138 7.24089 16.9245 7.34635 17.0625 7.41406C 17.2031 7.48177 17.3685 7.51562 17.5586 7.51562C 17.9102 7.51562 18.2799 7.40495 18.668 7.18359L 18.668 7.82422ZM 21.0469 8L 21.0469 4.24219L 19.8359 4.24219L 19.8359 3.63672L 21.7734 3.63672L 21.7734 7.39453L 22.9883 7.39453L 22.9883 8L 21.0469 8ZM 20.9258 2.0625C 20.9258 1.89844 20.9818 1.77604 21.0938 1.69531C 21.2057 1.61458 21.3112 1.57422 21.4102 1.57422C 21.5117 1.57422 21.6185 1.61458 21.7305 1.69531C 21.8424 1.77604 21.8984 1.89844 21.8984 2.0625C 21.8984 2.22396 21.8424 2.34505 21.7305 2.42578C 21.6185 2.50651 21.5117 2.54688 21.4102 2.54688C 21.3112 2.54688 21.2057 2.50651 21.0938 2.42578C 20.9818 2.34505 20.9258 2.22396 20.9258 2.0625ZM 26.4258 8.12109C 25.8008 8.12109 25.3008 7.90365 24.9258 7.46875C 24.5508 7.03125 24.3633 6.48047 24.3633 5.81641C 24.3633 5.15234 24.5508 4.60286 24.9258 4.16797C 25.3008 3.73307 25.8008 3.51562 26.4258 3.51562C 27.0482 3.51562 27.5469 3.73307 27.9219 4.16797C 28.2969 4.60286 28.4844 5.15234 28.4844 5.81641C 28.4844 6.48047 28.2969 7.03125 27.9219 7.46875C 27.5469 7.90365 27.0482 8.12109 26.4258 8.12109ZM 26.4258 7.51562C 26.8138 7.51562 27.1224 7.36458 27.3516 7.0625C 27.5807 6.76042 27.6953 6.34505 27.6953 5.81641C 27.6953 5.29036 27.5807 4.8763 27.3516 4.57422C 27.1224 4.27214 26.8138 4.12109 26.4258 4.12109C 26.0352 4.12109 25.7253 4.27214 25.4961 4.57422C 25.2669 4.8763 25.1523 5.29036 25.1523 5.81641C 25.1523 6.34505 25.2669 6.76042 25.4961 7.0625C 25.7253 7.36458 26.0352 7.51562 26.4258 7.51562ZM 29.4336 8L 29.4336 3.63672L 30.1602 3.63672L 30.1602 4.58984C 30.3685 4.25391 30.6198 3.99089 30.9141 3.80078C 31.2083 3.61068 31.5026 3.51562 31.7969 3.51562C 32.0547 3.51562 32.2891 3.58464 32.5 3.72266C 32.7109 3.85807 32.8581 4.03646 32.9414 4.25781C 33.0273 4.47917 33.0703 4.91406 33.0703 5.5625L 33.0703 8L 32.3438 8L 32.3438 5.47266C 32.3438 5.05339 32.3229 4.77734 32.2812 4.64453C 32.2422 4.50911 32.168 4.39844 32.0586 4.3125C 31.9518 4.22656 31.8346 4.18359 31.707 4.18359C 31.4518 4.18359 31.1771 4.30469 30.8828 4.54688C 30.5911 4.78906 30.3503 5.09245 30.1602 5.45703L 30.1602 8L 29.4336 8ZM 40.8398 8.12109C 40.2148 8.12109 39.7148 7.90365 39.3398 7.46875C 38.9648 7.03125 38.7773 6.48047 38.7773 5.81641C 38.7773 5.15234 38.9648 4.60286 39.3398 4.16797C 39.7148 3.73307 40.2148 3.51562 40.8398 3.51562C 41.4622 3.51562 41.9609 3.73307 42.3359 4.16797C 42.7109 4.60286 42.8984 5.15234 42.8984 5.81641C 42.8984 6.48047 42.7109 7.03125 42.3359 7.46875C 41.9609 7.90365 41.4622 8.12109 40.8398 8.12109ZM 40.8398 7.51562C 41.2279 7.51562 41.5365 7.36458 41.7656 7.0625C 41.9948 6.76042 42.1094 6.34505 42.1094 5.81641C 42.1094 5.29036 41.9948 4.8763 41.7656 4.57422C 41.5365 4.27214 41.2279 4.12109 40.8398 4.12109C 40.4492 4.12109 40.1393 4.27214 39.9102 4.57422C 39.681 4.8763 39.5664 5.29036 39.5664 5.81641C 39.5664 6.34505 39.681 6.76042 39.9102 7.0625C 40.1393 7.36458 40.4492 7.51562 40.8398 7.51562ZM 44.8633 8L 44.8633 4.60547L 43.8945 4.60547L 43.8945 4L 44.8633 4L 44.8633 3.79688C 44.8633 3.22135 44.9284 2.79557 45.0586 2.51953C 45.1888 2.24349 45.3893 2.01693 45.6602 1.83984C 45.9336 1.66276 46.2943 1.57422 46.7422 1.57422C 47.0807 1.57422 47.4245 1.60938 47.7734 1.67969L 47.7734 2.37109C 47.3958 2.24609 47.0612 2.18359 46.7695 2.18359C 46.5378 2.18359 46.3333 2.22656 46.1562 2.3125C 45.9792 2.39844 45.8398 2.53906 45.7383 2.73438C 45.6393 2.92708 45.5898 3.25521 45.5898 3.71875L 45.5898 4L 47.3203 4L 47.3203 4.60547L 45.5898 4.60547L 45.5898 8L 44.8633 8ZM 54.8555 8L 54.8555 2.60547L 53.0391 2.60547L 53.0391 1.9375L 57.4648 1.9375L 57.4648 2.60547L 55.6445 2.60547L 55.6445 8L 54.8555 8ZM 59.4844 8L 59.4844 4.24219L 58.2734 4.24219L 58.2734 3.63672L 60.2109 3.63672L 60.2109 7.39453L 61.4258 7.39453L 61.4258 8L 59.4844 8ZM 59.3633 2.0625C 59.3633 1.89844 59.4193 1.77604 59.5312 1.69531C 59.6432 1.61458 59.7487 1.57422 59.8477 1.57422C 59.9492 1.57422 60.056 1.61458 60.168 1.69531C 60.2799 1.77604 60.3359 1.89844 60.3359 2.0625C 60.3359 2.22396 60.2799 2.34505 60.168 2.42578C 60.056 2.50651 59.9492 2.54688 59.8477 2.54688C 59.7487 2.54688 59.6432 2.50651 59.5312 2.42578C 59.4193 2.34505 59.3633 2.22396 59.3633 2.0625ZM 62.7383 8L 62.7383 3.63672L 63.375 3.63672L 63.375 4.63672C 63.5755 4.21224 63.7617 3.91927 63.9336 3.75781C 64.1081 3.59635 64.2839 3.51562 64.4609 3.51562C 64.6719 3.51562 64.8411 3.59896 64.9688 3.76562C 65.099 3.92969 65.1641 4.16406 65.1641 4.46875L 65.1641 4.70312C 65.25 4.4375 65.3529 4.22266 65.4727 4.05859C 65.5951 3.89193 65.7214 3.76042 65.8516 3.66406C 65.9818 3.5651 66.1315 3.51562 66.3008 3.51562C 66.4883 3.51562 66.6484 3.59505 66.7812 3.75391C 66.9141 3.91276 66.9805 4.22917 66.9805 4.70312L 66.9805 8L 66.3438 8L 66.3438 5.01953C 66.3438 4.77474 66.3359 4.60807 66.3203 4.51953C 66.3047 4.42839 66.2734 4.35938 66.2266 4.3125C 66.1797 4.26562 66.1289 4.24219 66.0742 4.24219C 65.9388 4.24219 65.793 4.34635 65.6367 4.55469C 65.4831 4.76042 65.3255 5.10286 65.1641 5.58203L 65.1641 8L 64.5547 8L 64.5547 5.02344C 64.5547 4.63802 64.5169 4.41146 64.4414 4.34375C 64.3659 4.27604 64.2982 4.24219 64.2383 4.24219C 64.1055 4.24219 63.9622 4.35807 63.8086 4.58984C 63.6576 4.82161 63.513 5.11849 63.375 5.48047L 63.375 8L 62.7383 8ZM 71.5 7.71094C 70.9193 7.98698 70.3698 8.125 69.8516 8.125C 69.4583 8.125 69.1068 8.02734 68.7969 7.83203C 68.487 7.63672 68.2383 7.35807 68.0508 6.99609C 67.8659 6.63151 67.7734 6.24219 67.7734 5.82812C 67.7734 5.42969 67.862 5.04688 68.0391 4.67969C 68.2161 4.3125 68.4635 4.02734 68.7812 3.82422C 69.099 3.61849 69.4531 3.51562 69.8438 3.51562C 70.362 3.51562 70.7773 3.70052 71.0898 4.07031C 71.4049 4.4401 71.5625 5.01042 71.5625 5.78125L 71.5625 5.9375L 68.5547 5.9375C 68.5547 6.23958 68.6172 6.51562 68.7422 6.76562C 68.8698 7.01562 69.0365 7.20312 69.2422 7.32812C 69.4479 7.45312 69.6823 7.51562 69.9453 7.51562C 70.4141 7.51562 70.9323 7.35938 71.5 7.04688L 71.5 7.71094ZM 68.5977 5.39453L 70.7734 5.39453L 70.7734 5.28906C 70.7734 4.93229 70.6862 4.64844 70.5117 4.4375C 70.3372 4.22656 70.1042 4.12109 69.8125 4.12109C 69.5182 4.12109 69.263 4.22917 69.0469 4.44531C 68.8333 4.65885 68.6836 4.97526 68.5977 5.39453Z"/>
<path id="path11_fill" d="M 18.5508 5.78906L 18.5508 8L 17.7617 8L 17.7617 1.9375L 19.2695 1.9375C 19.8893 1.9375 20.3411 2.00781 20.625 2.14844C 20.9089 2.28646 21.1263 2.48958 21.2773 2.75781C 21.4284 3.02604 21.5039 3.32552 21.5039 3.65625C 21.5039 4.04427 21.4023 4.40625 21.1992 4.74219C 20.9961 5.07812 20.7122 5.33724 20.3477 5.51953C 19.9857 5.69922 19.4935 5.78906 18.8711 5.78906L 18.5508 5.78906ZM 18.5508 5.18359L 18.8906 5.18359C 19.3776 5.18359 19.7396 5.12109 19.9766 4.99609C 20.2135 4.86849 20.3958 4.6862 20.5234 4.44922C 20.651 4.21224 20.7148 3.95573 20.7148 3.67969C 20.7148 3.33073 20.6003 3.05469 20.3711 2.85156C 20.1445 2.64844 19.6953 2.54688 19.0234 2.54688L 18.5508 2.54688L 18.5508 5.18359ZM 24.2812 8.12109C 23.6562 8.12109 23.1562 7.90365 22.7812 7.46875C 22.4062 7.03125 22.2188 6.48047 22.2188 5.81641C 22.2188 5.15234 22.4062 4.60286 22.7812 4.16797C 23.1562 3.73307 23.6562 3.51562 24.2812 3.51562C 24.9036 3.51562 25.4023 3.73307 25.7773 4.16797C 26.1523 4.60286 26.3398 5.15234 26.3398 5.81641C 26.3398 6.48047 26.1523 7.03125 25.7773 7.46875C 25.4023 7.90365 24.9036 8.12109 24.2812 8.12109ZM 24.2812 7.51562C 24.6693 7.51562 24.9779 7.36458 25.207 7.0625C 25.4362 6.76042 25.5508 6.34505 25.5508 5.81641C 25.5508 5.29036 25.4362 4.8763 25.207 4.57422C 24.9779 4.27214 24.6693 4.12109 24.2812 4.12109C 23.8906 4.12109 23.5807 4.27214 23.3516 4.57422C 23.1224 4.8763 23.0078 5.29036 23.0078 5.81641C 23.0078 6.34505 23.1224 6.76042 23.3516 7.0625C 23.5807 7.36458 23.8906 7.51562 24.2812 7.51562ZM 27.6602 8L 27.6602 3.63672L 28.3867 3.63672L 28.3867 4.58984C 28.6133 4.23047 28.8724 3.96224 29.1641 3.78516C 29.4583 3.60547 29.7852 3.51562 30.1445 3.51562C 30.4076 3.51562 30.6706 3.55599 30.9336 3.63672L 30.9336 5.21094L 30.2344 5.21094L 30.2344 4.21484C 30.112 4.19401 30.0156 4.18359 29.9453 4.18359C 29.6745 4.18359 29.4089 4.29036 29.1484 4.50391C 28.888 4.71745 28.6341 5.03776 28.3867 5.46484L 28.3867 8L 27.6602 8ZM 35.7422 7.82422C 35.401 7.96745 35.1536 8.05208 35 8.07812C 34.8464 8.10677 34.6979 8.12109 34.5547 8.12109C 34.25 8.12109 33.9714 8.0625 33.7188 7.94531C 33.4661 7.82812 33.2747 7.65495 33.1445 7.42578C 33.0169 7.19661 32.9531 6.84245 32.9531 6.36328L 32.9531 4.60547L 31.8633 4.60547L 31.8633 4L 32.9531 4L 32.9531 2.24219L 33.6797 2.24219L 33.6797 4L 35.6211 4L 35.6211 4.60547L 33.6797 4.60547L 33.6797 6.35156C 33.6797 6.70312 33.7214 6.95182 33.8047 7.09766C 33.888 7.24089 33.9987 7.34635 34.1367 7.41406C 34.2773 7.48177 34.4427 7.51562 34.6328 7.51562C 34.9844 7.51562 35.3542 7.40495 35.7422 7.18359L 35.7422 7.82422ZM 38.1211 8L 38.1211 4.24219L 36.9102 4.24219L 36.9102 3.63672L 38.8477 3.63672L 38.8477 7.39453L 40.0625 7.39453L 40.0625 8L 38.1211 8ZM 38 2.0625C 38 1.89844 38.056 1.77604 38.168 1.69531C 38.2799 1.61458 38.3854 1.57422 38.4844 1.57422C 38.5859 1.57422 38.6927 1.61458 38.8047 1.69531C 38.9167 1.77604 38.9727 1.89844 38.9727 2.0625C 38.9727 2.22396 38.9167 2.34505 38.8047 2.42578C 38.6927 2.50651 38.5859 2.54688 38.4844 2.54688C 38.3854 2.54688 38.2799 2.50651 38.168 2.42578C 38.056 2.34505 38 2.22396 38 2.0625ZM 43.5 8.12109C 42.875 8.12109 42.375 7.90365 42 7.46875C 41.625 7.03125 41.4375 6.48047 41.4375 5.81641C 41.4375 5.15234 41.625 4.60286 42 4.16797C 42.375 3.73307 42.875 3.51562 43.5 3.51562C 44.1224 3.51562 44.6211 3.73307 44.9961 4.16797C 45.3711 4.60286 45.5586 5.15234 45.5586 5.81641C 45.5586 6.48047 45.3711 7.03125 44.9961 7.46875C 44.6211 7.90365 44.1224 8.12109 43.5 8.12109ZM 43.5 7.51562C 43.888 7.51562 44.1966 7.36458 44.4258 7.0625C 44.6549 6.76042 44.7695 6.34505 44.7695 5.81641C 44.7695 5.29036 44.6549 4.8763 44.4258 4.57422C 44.1966 4.27214 43.888 4.12109 43.5 4.12109C 43.1094 4.12109 42.7995 4.27214 42.5703 4.57422C 42.3411 4.8763 42.2266 5.29036 42.2266 5.81641C 42.2266 6.34505 42.3411 6.76042 42.5703 7.0625C 42.7995 7.36458 43.1094 7.51562 43.5 7.51562ZM 46.5078 8L 46.5078 3.63672L 47.2344 3.63672L 47.2344 4.58984C 47.4427 4.25391 47.694 3.99089 47.9883 3.80078C 48.2826 3.61068 48.5768 3.51562 48.8711 3.51562C 49.1289 3.51562 49.3633 3.58464 49.5742 3.72266C 49.7852 3.85807 49.9323 4.03646 50.0156 4.25781C 50.1016 4.47917 50.1445 4.91406 50.1445 5.5625L 50.1445 8L 49.418 8L 49.418 5.47266C 49.418 5.05339 49.3971 4.77734 49.3555 4.64453C 49.3164 4.50911 49.2422 4.39844 49.1328 4.3125C 49.026 4.22656 48.9089 4.18359 48.7812 4.18359C 48.526 4.18359 48.2513 4.30469 47.957 4.54688C 47.6654 4.78906 47.4245 5.09245 47.2344 5.45703L 47.2344 8L 46.5078 8ZM 57.9141 8.12109C 57.2891 8.12109 56.7891 7.90365 56.4141 7.46875C 56.0391 7.03125 55.8516 6.48047 55.8516 5.81641C 55.8516 5.15234 56.0391 4.60286 56.4141 4.16797C 56.7891 3.73307 57.2891 3.51562 57.9141 3.51562C 58.5365 3.51562 59.0352 3.73307 59.4102 4.16797C 59.7852 4.60286 59.9727 5.15234 59.9727 5.81641C 59.9727 6.48047 59.7852 7.03125 59.4102 7.46875C 59.0352 7.90365 58.5365 8.12109 57.9141 8.12109ZM 57.9141 7.51562C 58.3021 7.51562 58.6107 7.36458 58.8398 7.0625C 59.069 6.76042 59.1836 6.34505 59.1836 5.81641C 59.1836 5.29036 59.069 4.8763 58.8398 4.57422C 58.6107 4.27214 58.3021 4.12109 57.9141 4.12109C 57.5234 4.12109 57.2135 4.27214 56.9844 4.57422C 56.7552 4.8763 56.6406 5.29036 56.6406 5.81641C 56.6406 6.34505 56.7552 6.76042 56.9844 7.0625C 57.2135 7.36458 57.5234 7.51562 57.9141 7.51562ZM 61.9375 8L 61.9375 4.60547L 60.9688 4.60547L 60.9688 4L 61.9375 4L 61.9375 3.79688C 61.9375 3.22135 62.0026 2.79557 62.1328 2.51953C 62.263 2.24349 62.4635 2.01693 62.7344 1.83984C 63.0078 1.66276 63.3685 1.57422 63.8164 1.57422C 64.1549 1.57422 64.4987 1.60938 64.8477 1.67969L 64.8477 2.37109C 64.4701 2.24609 64.1354 2.18359 63.8438 2.18359C 63.612 2.18359 63.4076 2.22656 63.2305 2.3125C 63.0534 2.39844 62.9141 2.53906 62.8125 2.73438C 62.7135 2.92708 62.6641 3.25521 62.6641 3.71875L 62.6641 4L 64.3945 4L 64.3945 4.60547L 62.6641 4.60547L 62.6641 8L 61.9375 8ZM 4.50781 18.5977C 4.05469 18.7669 3.64844 18.8516 3.28906 18.8516C 2.8151 18.8516 2.37891 18.7253 1.98047 18.4727C 1.58203 18.2174 1.27214 17.8398 1.05078 17.3398C 0.829427 16.8372 0.71875 16.2695 0.71875 15.6367C 0.71875 15.0091 0.828125 14.4453 1.04688 13.9453C 1.26562 13.4453 1.57422 13.0664 1.97266 12.8086C 2.37109 12.5508 2.8099 12.4219 3.28906 12.4219C 3.64844 12.4219 4.05469 12.5065 4.50781 12.6758L 4.50781 13.3945C 4.08854 13.1523 3.67188 13.0312 3.25781 13.0312C 2.94531 13.0312 2.65885 13.138 2.39844 13.3516C 2.14062 13.5651 1.93229 13.8789 1.77344 14.293C 1.61458 14.7044 1.53516 15.1523 1.53516 15.6367C 1.53516 16.1289 1.61719 16.5833 1.78125 17C 1.94531 17.4167 2.15495 17.7292 2.41016 17.9375C 2.66536 18.1432 2.94792 18.2461 3.25781 18.2461C 3.66927 18.2461 4.08594 18.125 4.50781 17.8828L 4.50781 18.5977ZM 5.67578 18.5391L 5.67578 17.7969C 6.30078 18.0938 6.86849 18.2422 7.37891 18.2422C 7.59245 18.2422 7.79688 18.2018 7.99219 18.1211C 8.1875 18.0378 8.33464 17.9193 8.43359 17.7656C 8.53516 17.612 8.58594 17.4453 8.58594 17.2656C 8.58594 17.0547 8.51693 16.8581 8.37891 16.6758C 8.24089 16.4909 7.98177 16.2878 7.60156 16.0664L 7.20312 15.8359L 6.80078 15.6055C 6.09245 15.1862 5.73828 14.6654 5.73828 14.043C 5.73828 13.5872 5.89583 13.2044 6.21094 12.8945C 6.52865 12.582 7.02344 12.4258 7.69531 12.4258C 8.1276 12.4258 8.54557 12.4883 8.94922 12.6133L 8.94922 13.2891C 8.50391 13.1172 8.07031 13.0312 7.64844 13.0312C 7.3125 13.0312 7.04036 13.1198 6.83203 13.2969C 6.6263 13.474 6.52344 13.6875 6.52344 13.9375C 6.52344 14.1849 6.60286 14.3906 6.76172 14.5547C 6.92057 14.7188 7.1237 14.8698 7.37109 15.0078L 7.67578 15.1914L 8.05469 15.4219L 8.375 15.6094C 9.03906 16.0156 9.37109 16.526 9.37109 17.1406C 9.37109 17.6094 9.20052 18.0117 8.85938 18.3477C 8.51823 18.6836 7.97135 18.8516 7.21875 18.8516C 6.97917 18.8516 6.75 18.8307 6.53125 18.7891C 6.3151 18.75 6.02995 18.6667 5.67578 18.5391ZM 10.4805 18.5391L 10.4805 17.7969C 11.1055 18.0938 11.6732 18.2422 12.1836 18.2422C 12.3971 18.2422 12.6016 18.2018 12.7969 18.1211C 12.9922 18.0378 13.1393 17.9193 13.2383 17.7656C 13.3398 17.612 13.3906 17.4453 13.3906 17.2656C 13.3906 17.0547 13.3216 16.8581 13.1836 16.6758C 13.0456 16.4909 12.7865 16.2878 12.4062 16.0664L 12.0078 15.8359L 11.6055 15.6055C 10.8971 15.1862 10.543 14.6654 10.543 14.043C 10.543 13.5872 10.7005 13.2044 11.0156 12.8945C 11.3333 12.582 11.8281 12.4258 12.5 12.4258C 12.9323 12.4258 13.3503 12.4883 13.7539 12.6133L 13.7539 13.2891C 13.3086 13.1172 12.875 13.0312 12.4531 13.0312C 12.1172 13.0312 11.8451 13.1198 11.6367 13.2969C 11.431 13.474 11.3281 13.6875 11.3281 13.9375C 11.3281 14.1849 11.4076 14.3906 11.5664 14.5547C 11.7253 14.7188 11.9284 14.8698 12.1758 15.0078L 12.4805 15.1914L 12.8594 15.4219L 13.1797 15.6094C 13.8438 16.0156 14.1758 16.526 14.1758 17.1406C 14.1758 17.6094 14.0052 18.0117 13.6641 18.3477C 13.3229 18.6836 12.776 18.8516 12.0234 18.8516C 11.7839 18.8516 11.5547 18.8307 11.3359 18.7891C 11.1198 18.75 10.8346 18.6667 10.4805 18.5391ZM 20.9531 16.457L 20.9531 18.668L 20.1641 18.668L 20.1641 12.6055L 21.6719 12.6055C 22.2917 12.6055 22.7435 12.6758 23.0273 12.8164C 23.3112 12.9544 23.5286 13.1576 23.6797 13.4258C 23.8307 13.694 23.9062 13.9935 23.9062 14.3242C 23.9062 14.7122 23.8047 15.0742 23.6016 15.4102C 23.3984 15.7461 23.1146 16.0052 22.75 16.1875C 22.388 16.3672 21.8958 16.457 21.2734 16.457L 20.9531 16.457ZM 20.9531 15.8516L 21.293 15.8516C 21.7799 15.8516 22.1419 15.7891 22.3789 15.6641C 22.6159 15.5365 22.7982 15.3542 22.9258 15.1172C 23.0534 14.8802 23.1172 14.6237 23.1172 14.3477C 23.1172 13.9987 23.0026 13.7227 22.7734 13.5195C 22.5469 13.3164 22.0977 13.2148 21.4258 13.2148L 20.9531 13.2148L 20.9531 15.8516ZM 25.2578 18.668L 25.2578 14.3047L 25.9844 14.3047L 25.9844 15.2578C 26.2109 14.8984 26.4701 14.6302 26.7617 14.4531C 27.056 14.2734 27.3828 14.1836 27.7422 14.1836C 28.0052 14.1836 28.2682 14.224 28.5312 14.3047L 28.5312 15.8789L 27.832 15.8789L 27.832 14.8828C 27.7096 14.862 27.6133 14.8516 27.543 14.8516C 27.2721 14.8516 27.0065 14.9583 26.7461 15.1719C 26.4857 15.3854 26.2318 15.7057 25.9844 16.1328L 25.9844 18.668L 25.2578 18.668ZM 31.4883 18.7891C 30.8633 18.7891 30.3633 18.5716 29.9883 18.1367C 29.6133 17.6992 29.4258 17.1484 29.4258 16.4844C 29.4258 15.8203 29.6133 15.2708 29.9883 14.8359C 30.3633 14.401 30.8633 14.1836 31.4883 14.1836C 32.1107 14.1836 32.6094 14.401 32.9844 14.8359C 33.3594 15.2708 33.5469 15.8203 33.5469 16.4844C 33.5469 17.1484 33.3594 17.6992 32.9844 18.1367C 32.6094 18.5716 32.1107 18.7891 31.4883 18.7891ZM 31.4883 18.1836C 31.8763 18.1836 32.1849 18.0326 32.4141 17.7305C 32.6432 17.4284 32.7578 17.013 32.7578 16.4844C 32.7578 15.9583 32.6432 15.5443 32.4141 15.2422C 32.1849 14.9401 31.8763 14.7891 31.4883 14.7891C 31.0977 14.7891 30.7878 14.9401 30.5586 15.2422C 30.3294 15.5443 30.2148 15.9583 30.2148 16.4844C 30.2148 17.013 30.3294 17.4284 30.5586 17.7305C 30.7878 18.0326 31.0977 18.1836 31.4883 18.1836ZM 35.168 15.2852C 35.3919 14.9206 35.6589 14.6458 35.9688 14.4609C 36.2786 14.276 36.5638 14.1836 36.8242 14.1836C 37.1888 14.1836 37.5169 14.3411 37.8086 14.6562C 38.1003 14.9714 38.2461 15.4492 38.2461 16.0898C 38.2461 16.5951 38.1484 17.0469 37.9531 17.4453C 37.7604 17.8411 37.5026 18.1549 37.1797 18.3867C 36.8568 18.6159 36.457 18.7305 35.9805 18.7305C 35.8451 18.7305 35.6367 18.7161 35.3555 18.6875C 35.3138 18.6823 35.2513 18.6758 35.168 18.668L 35.168 20.3633L 34.4414 20.3633L 34.4414 14.3047L 35.168 14.3047L 35.168 15.2852ZM 35.168 16.1484L 35.168 18.0195C 35.431 18.0872 35.6732 18.1211 35.8945 18.1211C 36.3346 18.1211 36.7044 17.9492 37.0039 17.6055C 37.306 17.2591 37.457 16.7865 37.457 16.1875C 37.457 15.7526 37.375 15.4258 37.2109 15.207C 37.0469 14.9883 36.8607 14.8789 36.6523 14.8789C 36.4258 14.8789 36.1758 14.9935 35.9023 15.2227C 35.6315 15.4518 35.3867 15.7604 35.168 16.1484ZM 42.9297 18.3789C 42.349 18.6549 41.7995 18.793 41.2812 18.793C 40.888 18.793 40.5365 18.6953 40.2266 18.5C 39.9167 18.3047 39.668 18.026 39.4805 17.6641C 39.2956 17.2995 39.2031 16.9102 39.2031 16.4961C 39.2031 16.0977 39.2917 15.7148 39.4688 15.3477C 39.6458 14.9805 39.8932 14.6953 40.2109 14.4922C 40.5286 14.2865 40.8828 14.1836 41.2734 14.1836C 41.7917 14.1836 42.207 14.3685 42.5195 14.7383C 42.8346 15.1081 42.9922 15.6784 42.9922 16.4492L 42.9922 16.6055L 39.9844 16.6055C 39.9844 16.9076 40.0469 17.1836 40.1719 17.4336C 40.2995 17.6836 40.4661 17.8711 40.6719 17.9961C 40.8776 18.1211 41.112 18.1836 41.375 18.1836C 41.8438 18.1836 42.362 18.0273 42.9297 17.7148L 42.9297 18.3789ZM 40.0273 16.0625L 42.2031 16.0625L 42.2031 15.957C 42.2031 15.6003 42.1159 15.3164 41.9414 15.1055C 41.7669 14.8945 41.5339 14.7891 41.2422 14.7891C 40.9479 14.7891 40.6927 14.8971 40.4766 15.1133C 40.263 15.3268 40.1133 15.6432 40.0273 16.0625ZM 44.4766 18.668L 44.4766 14.3047L 45.2031 14.3047L 45.2031 15.2578C 45.4297 14.8984 45.6888 14.6302 45.9805 14.4531C 46.2747 14.2734 46.6016 14.1836 46.9609 14.1836C 47.224 14.1836 47.487 14.224 47.75 14.3047L 47.75 15.8789L 47.0508 15.8789L 47.0508 14.8828C 46.9284 14.862 46.832 14.8516 46.7617 14.8516C 46.4909 14.8516 46.2253 14.9583 45.9648 15.1719C 45.7044 15.3854 45.4505 15.7057 45.2031 16.1328L 45.2031 18.668L 44.4766 18.668ZM 52.5586 18.4922C 52.2174 18.6354 51.9701 18.7201 51.8164 18.7461C 51.6628 18.7747 51.5143 18.7891 51.3711 18.7891C 51.0664 18.7891 50.7878 18.7305 50.5352 18.6133C 50.2826 18.4961 50.0911 18.3229 49.9609 18.0938C 49.8333 17.8646 49.7695 17.5104 49.7695 17.0312L 49.7695 15.2734L 48.6797 15.2734L 48.6797 14.668L 49.7695 14.668L 49.7695 12.9102L 50.4961 12.9102L 50.4961 14.668L 52.4375 14.668L 52.4375 15.2734L 50.4961 15.2734L 50.4961 17.0195C 50.4961 17.3711 50.5378 17.6198 50.6211 17.7656C 50.7044 17.9089 50.8151 18.0143 50.9531 18.082C 51.0938 18.1497 51.2591 18.1836 51.4492 18.1836C 51.8008 18.1836 52.1706 18.0729 52.5586 17.8516L 52.5586 18.4922ZM 55.3203 18.4922L 53.3047 14.3047L 54.1055 14.3047L 55.7109 17.5781L 57.0547 14.3047L 57.7852 14.3047L 56.0938 18.3594C 55.737 19.2161 55.3971 19.7852 55.0742 20.0664C 54.7539 20.3477 54.3385 20.4883 53.8281 20.4883C 53.6068 20.4883 53.4089 20.4688 53.2344 20.4297L 53.2344 19.7891C 53.4349 19.8516 53.6263 19.8828 53.8086 19.8828C 54.043 19.8828 54.2513 19.8372 54.4336 19.7461C 54.6159 19.6549 54.7826 19.4935 54.9336 19.2617C 55.0846 19.0299 55.1914 18.8294 55.2539 18.6602L 55.3203 18.4922ZM 66.6367 12.6055L 67.3945 12.6055L 65.5273 18.668L 64.7266 18.668L 62.8477 12.6055L 63.6797 12.6055L 64.9961 16.8398L 65.168 17.457L 65.3203 16.8438L 66.6367 12.6055ZM 70.9961 17.6875C 70.7747 18.0521 70.5078 18.3268 70.1953 18.5117C 69.8854 18.6966 69.6003 18.7891 69.3398 18.7891C 68.9753 18.7891 68.6471 18.6315 68.3555 18.3164C 68.0664 18.0013 67.9219 17.5234 67.9219 16.8828C 67.9219 16.3776 68.0182 15.9271 68.2109 15.5312C 68.4036 15.1328 68.6615 14.819 68.9844 14.5898C 69.3073 14.3581 69.707 14.2422 70.1836 14.2422C 70.3216 14.2422 70.5299 14.2565 70.8086 14.2852C 70.8503 14.2904 70.9128 14.2969 70.9961 14.3047L 71.7266 14.3047L 71.7266 17.3867C 71.7266 17.9128 71.7812 18.3398 71.8906 18.668L 71.1328 18.668C 71.0755 18.4284 71.0299 18.1016 70.9961 17.6875ZM 70.9961 16.8242L 70.9961 14.9531C 70.7383 14.8854 70.4987 14.8516 70.2773 14.8516C 69.8294 14.8516 69.4557 15.0247 69.1562 15.3711C 68.8594 15.7174 68.7109 16.1888 68.7109 16.7852C 68.7109 17.2174 68.7917 17.5443 68.9531 17.7656C 69.1172 17.9844 69.3034 18.0938 69.5117 18.0938C 69.7383 18.0938 69.9883 17.9792 70.2617 17.75C 70.5352 17.5208 70.7799 17.2122 70.9961 16.8242ZM 74.1055 18.668L 74.1055 12.9727L 72.8008 12.9727L 72.8008 12.3633L 74.832 12.3633L 74.832 18.0625L 76.1953 18.0625L 76.1953 18.668L 74.1055 18.668ZM 81.3281 14.3047L 81.3281 18.668L 80.6016 18.668L 80.6016 17.7109C 80.3672 18.0703 80.1068 18.3398 79.8203 18.5195C 79.5339 18.6992 79.2474 18.7891 78.9609 18.7891C 78.7057 18.7891 78.4714 18.7214 78.2578 18.5859C 78.0469 18.4479 77.8997 18.2682 77.8164 18.0469C 77.7331 17.8229 77.6914 17.388 77.6914 16.7422L 77.6914 14.3047L 78.418 14.3047L 78.418 16.832C 78.418 17.2513 78.4375 17.5286 78.4766 17.6641C 78.5182 17.7969 78.5924 17.9062 78.6992 17.9922C 78.8086 18.0781 78.9258 18.1211 79.0508 18.1211C 79.306 18.1211 79.5794 18.0013 79.8711 17.7617C 80.1654 17.5195 80.4089 17.2148 80.6016 16.8477L 80.6016 14.3047L 81.3281 14.3047ZM 86.1719 18.3789C 85.5911 18.6549 85.0417 18.793 84.5234 18.793C 84.1302 18.793 83.7786 18.6953 83.4688 18.5C 83.1589 18.3047 82.9102 18.026 82.7227 17.6641C 82.5378 17.2995 82.4453 16.9102 82.4453 16.4961C 82.4453 16.0977 82.5339 15.7148 82.7109 15.3477C 82.888 14.9805 83.1354 14.6953 83.4531 14.4922C 83.7708 14.2865 84.125 14.1836 84.5156 14.1836C 85.0339 14.1836 85.4492 14.3685 85.7617 14.7383C 86.0768 15.1081 86.2344 15.6784 86.2344 16.4492L 86.2344 16.6055L 83.2266 16.6055C 83.2266 16.9076 83.2891 17.1836 83.4141 17.4336C 83.5417 17.6836 83.7083 17.8711 83.9141 17.9961C 84.1198 18.1211 84.3542 18.1836 84.6172 18.1836C 85.0859 18.1836 85.6042 18.0273 86.1719 17.7148L 86.1719 18.3789ZM 83.2695 16.0625L 85.4453 16.0625L 85.4453 15.957C 85.4453 15.6003 85.3581 15.3164 85.1836 15.1055C 85.0091 14.8945 84.776 14.7891 84.4844 14.7891C 84.1901 14.7891 83.9349 14.8971 83.7188 15.1133C 83.5052 15.3268 83.3555 15.6432 83.2695 16.0625Z"/>
</defs>
</svg>
